# xmcd
#
# Track frame offsets: 
#        150
#        14592
#        34675
#        47487
#        70862
#        85950
#        104230
#        118377
#        134920
#        153100
#
# Disc length: 2354 seconds
#
# Revision: 2
# Processed by: cddbd v1.5.2PL0 Copyright (c) Steve Scherf et al.
# Submitted via: ExactAudioCopy v0.99pb3
#
DISCID=8f09300a
DTITLE=Rui Veloso - Guardador de Margens
DYEAR=1993
DGENRE=Pop
TTITLE0=Meliante
TTITLE1=Elegia Sanjoanina
TTITLE2=Máquina Zero
TTITLE3=Discos Pedidos
TTITLE4=Cantor da Rua
TTITLE5=A ilha
TTITLE6=Dança dos Modernos
TTITLE7=Em Busca Dum Visual
TTITLE8=Slow Da Falta De Quorum
TTITLE9=Guardador De Margens
EXTD=
EXTT0=
EXTT1=
EXTT2=
EXTT3=
EXTT4=
EXTT5=
EXTT6=
EXTT7=
EXTT8=
EXTT9=
PLAYORDER=
